<svg width="1024" height="1024" viewBox="0 0 1024 1024" fill="none" xmlns="http://www.w3.org/2000/svg">
  <defs>
    <linearGradient id="bg" x1="160" y1="128" x2="864" y2="896" gradientUnits="userSpaceOnUse">
      <stop stop-color="#FFB18A"/>
      <stop offset="0.55" stop-color="#FF8D79"/>
      <stop offset="1" stop-color="#F46B67"/>
    </linearGradient>
    <linearGradient id="glass" x1="512" y1="232" x2="512" y2="776" gradientUnits="userSpaceOnUse">
      <stop stop-color="#FFFFFF"/>
      <stop offset="1" stop-color="#FFF4EF"/>
    </linearGradient>
    <linearGradient id="accent" x1="418" y1="468" x2="606" y2="650" gradientUnits="userSpaceOnUse">
      <stop stop-color="#FF8FA3"/>
      <stop offset="1" stop-color="#FF647F"/>
    </linearGradient>
    <filter id="shadow" x="230" y="166" width="564" height="694" filterUnits="userSpaceOnUse" color-interpolation-filters="sRGB">
      <feFlood flood-opacity="0" result="BackgroundImageFix"/>
      <feColorMatrix in="SourceAlpha" type="matrix" values="0 0 0 0 0 0 0 0 0 0 0 0 0 0 0 0 0 0 127 0" result="hardAlpha"/>
      <feOffset dy="20"/>
      <feGaussianBlur stdDeviation="28"/>
      <feColorMatrix type="matrix" values="0 0 0 0 0.741176 0 0 0 0 0.286275 0 0 0 0 0.290196 0 0 0 0.18 0"/>
      <feBlend mode="normal" in2="BackgroundImageFix" result="effect1_dropShadow_1_2"/>
      <feBlend mode="normal" in="SourceGraphic" in2="effect1_dropShadow_1_2" result="shape"/>
    </filter>
  </defs>

  <rect x="72" y="72" width="880" height="880" rx="208" fill="url(#bg)"/>
  <circle cx="792" cy="246" r="118" fill="#FFD8C9" fill-opacity="0.33"/>
  <circle cx="250" cy="792" r="162" fill="#FFFFFF" fill-opacity="0.1"/>
  <path d="M178 338C274 258 398 214 528 214C679 214 799 276 854 344" stroke="#FFFFFF" stroke-opacity="0.18" stroke-width="28" stroke-linecap="round"/>

  <g filter="url(#shadow)">
    <path d="M454 238C454 212.595 474.595 192 500 192H524C549.405 192 570 212.595 570 238V264H600C629.823 264 654 288.177 654 318V354C654 383.823 629.823 408 600 408H424C394.177 408 370 383.823 370 354V318C370 288.177 394.177 264 424 264H454V238Z" fill="url(#glass)"/>
    <path d="M396 386H628V670C628 733.961 576.961 785 513 785H511C447.039 785 396 733.961 396 670V386Z" fill="url(#glass)"/>
    <rect x="432" y="444" width="162" height="220" rx="60" fill="#FFE8DF"/>
    <path d="M478 496C456.667 473.333 420.8 490 419 525C417.2 560 451.833 584.333 469.5 592L510.5 632L550.5 592C568.833 584.333 605.2 560 605 525C604.8 490 569 473.333 547 496C534.5 509 522.5 523 512 540C501.833 523 489.833 509 478 496Z" fill="url(#accent)"/>
    <rect x="456" y="360" width="22" height="18" rx="9" fill="#FFFFFF"/>
    <rect x="501" y="360" width="22" height="18" rx="9" fill="#FFFFFF"/>
    <rect x="546" y="360" width="22" height="18" rx="9" fill="#FFFFFF"/>
    <rect x="664" y="456" width="54" height="182" rx="27" fill="#FFFFFF" fill-opacity="0.35"/>
    <rect x="692" y="498" width="54" height="182" rx="27" fill="#FFFFFF" fill-opacity="0.18"/>
  </g>
</svg>
